# xmcd CD database file
#
# Track frame offsets:
#	150
#	20816
#	38424
#	58172
#	71820
#	87439
#	105272
#	125033
#	144834
#	160071
#	178076
#	192762
#	212164
#	225942
#
# Disc length: 3232 seconds
#
# Revision: 0
# Processed by: cddbd v1.5.1PL0 Copyright (c) Steve Scherf et al.
# Submitted via: CDex 1.51
#
DISCID=bb0c9e0e
DTITLE=Cleo Laine with Laurie Holloway - Loesser Genius
DYEAR=2003
DGENRE=Jazz
TTITLE0=Two Sleepy People
TTITLE1=Never Will I Marry
TTITLE2=Heart and Soul
TTITLE3=I Hear Music
TTITLE4=On a Slow Boat to China
TTITLE5=Inchworm
TTITLE6=My Darling, My Darling
TTITLE7=I Believe In You
TTITLE8=Spring Will Be a Little Late This Year
TTITLE9=I've Never Been in Love Before
TTITLE10=No Two People (Have Ever Been So In Love)
TTITLE11=Sand in My Shoes
TTITLE12=Baby It's Cold Outside
TTITLE13=If I Were a Bell
EXTD=YEAR: 2003
EXTT0=
EXTT1=
EXTT2=
EXTT3=
EXTT4=
EXTT5=
EXTT6=
EXTT7=
EXTT8=
EXTT9=
EXTT10=
EXTT11=
EXTT12=
EXTT13=
PLAYORDER=
